HIERARCHY
ROOT Reference
{
  OFFSET 0 0 0
  CHANNELS 6 Xposition Yposition Zposition Zrotation Xrotation Yrotation
  JOINT Hips
  {
    OFFSET 251.394 724.17 483.536
    CHANNELS 3 Zrotation Xrotation Yrotation
    JOINT RightUpLeg
    {
      OFFSET -0.450515 -23.4426 -1.37224
      CHANNELS 3 Zrotation Xrotation Yrotation
      JOINT RightLeg
      {
        OFFSET 112.821 0.0872427 -0.321027
        CHANNELS 3 Zrotation Xrotation Yrotation
        JOINT RightFoot
        {
          OFFSET 105.718 0.000193788 0.0213165
          CHANNELS 3 Zrotation Xrotation Yrotation
          JOINT RightToeBase
          {
            OFFSET 37.638 -0.000116272 0.00224792
            CHANNELS 3 Zrotation Xrotation Yrotation
            JOINT RightToeEnd
            {
              OFFSET 21.2112 0.114605 -0.000138184
              CHANNELS 3 Zrotation Xrotation Yrotation
              End Site
              {
                OFFSET 0 0 0
              }
            }
          }
        }
      }
    }
    JOINT LeftUpLeg
    {
      OFFSET -0.449508 23.4315 -1.37054
      CHANNELS 3 Zrotation Xrotation Yrotation
      JOINT LeftLeg
      {
        OFFSET 112.821 -0.0485242 -0.372458
        CHANNELS 3 Zrotation Xrotation Yrotation
        JOINT LeftFoot
        {
          OFFSET 105.716 0.00496094 -0.0229443
          CHANNELS 3 Zrotation Xrotation Yrotation
          JOINT LeftToeBase
          {
            OFFSET 37.639 0 0.00158905
            CHANNELS 3 Zrotation Xrotation Yrotation
            JOINT LeftToeEnd
            {
              OFFSET 21.2113 -0.125031 -0.00017438
              CHANNELS 3 Zrotation Xrotation Yrotation
              End Site
              {
                OFFSET 0 0 0
              }
            }
          }
        }
      }
    }
    JOINT Spine
    {
      OFFSET -5.01225 0.000463591 -9.60395
      CHANNELS 3 Zrotation Xrotation Yrotation
      JOINT Spine1
      {
        OFFSET 26.0222 -0.000271301 -0.000155029
        CHANNELS 3 Zrotation Xrotation Yrotation
        JOINT Spine2
        {
          OFFSET 27.173 -0.000155029 -0.000310058
          CHANNELS 3 Zrotation Xrotation Yrotation
          JOINT Spine3
          {
            OFFSET 36.3953 -0.000232544 7.75146e-005
            CHANNELS 3 Zrotation Xrotation Yrotation
            JOINT Neck
            {
              OFFSET 36.4331 0 -3.00261
              CHANNELS 3 Zrotation Xrotation Yrotation
              JOINT Head
              {
                OFFSET 23.0407 -0.000232544 -0.000310058
                CHANNELS 3 Zrotation Xrotation Yrotation
                End Site
                {
                  OFFSET 0 0 0
                }
              }
            }
            JOINT LeftShoulder
            {
              OFFSET 20.1317 6.74168 -12.6061
              CHANNELS 3 Zrotation Xrotation Yrotation
              JOINT LeftArm
              {
                OFFSET 34.2172 -5.81359e-005 7.75146e-005
                CHANNELS 3 Zrotation Xrotation Yrotation
                JOINT LeftForeArm
                {
                  OFFSET 65.4129 -0.0821605 0.0585235
                  CHANNELS 3 Zrotation Xrotation Yrotation
                  JOINT LeftHand
                  {
                    OFFSET 67.3883 0.0359667 0.0112396
                    CHANNELS 3 Zrotation Xrotation Yrotation
                    JOINT LeftHandThumb1
                    {
                      OFFSET 8.78386 2.85353 -6.05362
                      CHANNELS 3 Zrotation Xrotation Yrotation
                      JOINT LeftHandThumb2
                      {
                        OFFSET 8.25498 -0.000116272 -0.000174407
                        CHANNELS 3 Zrotation Xrotation Yrotation
                        JOINT LeftHandThumb3
                        {
                          OFFSET 7.24822 0.000310058 5.81358e-005
                          CHANNELS 3 Zrotation Xrotation Yrotation
                          JOINT LeftHandThumb4
                          {
                            OFFSET 7.0004 -3.87568e-005 -0.000310057
                            CHANNELS 3 Zrotation Xrotation Yrotation
                            End Site
                            {
                              OFFSET 0 0 0
                            }
                          }
                        }
                      }
                    }
                    JOINT LeftHandIndex1
                    {
                      OFFSET 24.0991 -1.01537 -5.40558
                      CHANNELS 3 Zrotation Xrotation Yrotation
                      JOINT LeftHandIndex2
                      {
                        OFFSET 7.26759 -0.000290679 -0.000465086
                        CHANNELS 3 Zrotation Xrotation Yrotation
                        JOINT LeftHandIndex3
                        {
                          OFFSET 7.13628 -1.93787e-005 0.000232543
                          CHANNELS 3 Zrotation Xrotation Yrotation
                          JOINT LeftHandIndex4
                          {
                            OFFSET 5.46699 9.68932e-005 -0.000387571
                            CHANNELS 3 Zrotation Xrotation Yrotation
                            End Site
                            {
                              OFFSET 0 0 0
                            }
                          }
                        }
                      }
                    }
                    JOINT LeftHandMiddle1
                    {
                      OFFSET 24.4604 -2.52837 0.918567
                      CHANNELS 3 Zrotation Xrotation Yrotation
                      JOINT LeftHandMiddle2
                      {
                        OFFSET 7.41627 -5.81359e-005 0.000116271
                        CHANNELS 3 Zrotation Xrotation Yrotation
                        JOINT LeftHandMiddle3
                        {
                          OFFSET 8.76829 3.87573e-005 -7.75142e-005
                          CHANNELS 3 Zrotation Xrotation Yrotation
                          JOINT LeftHandMiddle4
                          {
                            OFFSET 6.07588 -0.00013565 -5.81356e-005
                            CHANNELS 3 Zrotation Xrotation Yrotation
                            End Site
                            {
                              OFFSET 0 0 0
                            }
                          }
                        }
                      }
                    }
                    JOINT LeftHandRing1
                    {
                      OFFSET 22.465 -1.97467 6.3466
                      CHANNELS 3 Zrotation Xrotation Yrotation
                      JOINT LeftHandRing2
                      {
                        OFFSET 7.36666 -0.000232544 0.000387571
                        CHANNELS 3 Zrotation Xrotation Yrotation
                        JOINT LeftHandRing3
                        {
                          OFFSET 8.07624 -0.000465087 -0.000203475
                          CHANNELS 3 Zrotation Xrotation Yrotation
                          JOINT LeftHandRing4
                          {
                            OFFSET 6.04433 0.00013565 3.87571e-005
                            CHANNELS 3 Zrotation Xrotation Yrotation
                            End Site
                            {
                              OFFSET 0 0 0
                            }
                          }
                        }
                      }
                    }
                    JOINT LeftHandPinky1
                    {
                      OFFSET 19.5278 0.352933 10.4295
                      CHANNELS 3 Zrotation Xrotation Yrotation
                      JOINT LeftHandPinky2
                      {
                        OFFSET 6.16525 5.8136e-005 -0.000251921
                        CHANNELS 3 Zrotation Xrotation Yrotation
                        JOINT LeftHandPinky3
                        {
                          OFFSET 6.14448 -0.000329434 -0.00510625
                          CHANNELS 3 Zrotation Xrotation Yrotation
                          JOINT LeftHandPinky4
                          {
                            OFFSET 4.98555 0.000116272 0.000116271
                            CHANNELS 3 Zrotation Xrotation Yrotation
                            End Site
                            {
                              OFFSET 0 0 0
                            }
                          }
                        }
                      }
                    }
                  }
                }
              }
            }
            JOINT RightShoulder
            {
              OFFSET 20.1309 -6.74152 -12.6063
              CHANNELS 3 Zrotation Xrotation Yrotation
              JOINT RightArm
              {
                OFFSET 34.2171 7.75146e-005 7.75146e-005
                CHANNELS 3 Zrotation Xrotation Yrotation
                JOINT RightForeArm
                {
                  OFFSET 65.4492 0.242543 -0.176501
                  CHANNELS 3 Zrotation Xrotation Yrotation
                  JOINT RightHand
                  {
                    OFFSET 67.3888 -0.0867388 0.0597442
                    CHANNELS 3 Zrotation Xrotation Yrotation
                    JOINT RightHandThumb1
                    {
                      OFFSET 8.78307 -2.85357 -6.05302
                      CHANNELS 3 Zrotation Xrotation Yrotation
                      JOINT RightHandThumb2
                      {
                        OFFSET 8.25493 -7.75145e-005 0
                        CHANNELS 3 Zrotation Xrotation Yrotation
                        JOINT RightHandThumb3
                        {
                          OFFSET 7.24797 -0.000174408 0.000155029
                          CHANNELS 3 Zrotation Xrotation Yrotation
                          JOINT RightHandThumb4
                          {
                            OFFSET 7.00062 0 0
                            CHANNELS 3 Zrotation Xrotation Yrotation
                            End Site
                            {
                              OFFSET 0 0 0
                            }
                          }
                        }
                      }
                    }
                    JOINT RightHandIndex1
                    {
                      OFFSET 24.0991 1.01525 -5.40578
                      CHANNELS 3 Zrotation Xrotation Yrotation
                      JOINT RightHandIndex2
                      {
                        OFFSET 7.26773 7.75144e-005 0.000232543
                        CHANNELS 3 Zrotation Xrotation Yrotation
                        JOINT RightHandIndex3
                        {
                          OFFSET 7.13572 -0.000310058 3.87571e-005
                          CHANNELS 3 Zrotation Xrotation Yrotation
                          JOINT RightHandIndex4
                          {
                            OFFSET 5.46717 0 3.87572e-005
                            CHANNELS 3 Zrotation Xrotation Yrotation
                            End Site
                            {
                              OFFSET 0 0 0
                            }
                          }
                        }
                      }
                    }
                    JOINT RightHandMiddle1
                    {
                      OFFSET 24.4603 2.52899 0.918547
                      CHANNELS 3 Zrotation Xrotation Yrotation
                      JOINT RightHandMiddle2
                      {
                        OFFSET 7.41641 -0.000116272 -0.000116272
                        CHANNELS 3 Zrotation Xrotation Yrotation
                        JOINT RightHandMiddle3
                        {
                          OFFSET 8.76765 -3.87577e-005 0.000232543
                          CHANNELS 3 Zrotation Xrotation Yrotation
                          JOINT RightHandMiddle4
                          {
                            OFFSET 6.07609 -0.000193787 -0.000116271
                            CHANNELS 3 Zrotation Xrotation Yrotation
                            End Site
                            {
                              OFFSET 0 0 0
                            }
                          }
                        }
                      }
                    }
                    JOINT RightHandRing1
                    {
                      OFFSET 22.465 1.97571 6.34696
                      CHANNELS 3 Zrotation Xrotation Yrotation
                      JOINT RightHandRing2
                      {
                        OFFSET 7.36684 0.000193786 0.000155029
                        CHANNELS 3 Zrotation Xrotation Yrotation
                        JOINT RightHandRing3
                        {
                          OFFSET 8.07614 -0.000271301 0
                          CHANNELS 3 Zrotation Xrotation Yrotation
                          JOINT RightHandRing4
                          {
                            OFFSET 6.04468 0.000232543 0
                            CHANNELS 3 Zrotation Xrotation Yrotation
                            End Site
                            {
                              OFFSET 0 0 0
                            }
                          }
                        }
                      }
                    }
                    JOINT RightHandPinky1
                    {
                      OFFSET 19.5277 -0.352346 10.4296
                      CHANNELS 3 Zrotation Xrotation Yrotation
                      JOINT RightHandPinky2
                      {
                        OFFSET 6.16508 0 0.000232543
                        CHANNELS 3 Zrotation Xrotation Yrotation
                        JOINT RightHandPinky3
                        {
                          OFFSET 6.14396 -0.000155048 -0.0048834
                          CHANNELS 3 Zrotation Xrotation Yrotation
                          JOINT RightHandPinky4
                          {
                            OFFSET 4.98577 -7.75146e-005 -7.75143e-005
                            CHANNELS 3 Zrotation Xrotation Yrotation
                            End Site
                            {
                              OFFSET 0 0 0
                            }
                          }
                        }
                      }
                    }
                  }
                }
              }
            }
          }
        }
      }
    }
  }
}
MOTION
Frames:	4
Frame Time:	0.0333333
0 0 0 -90 -7.01671e-015 -180 -177.78 -7.23607 157.494 -175.057 5.56235 -41.3362 -2.19943 -0.118667 -87.9452 -4.99832 -13.649 24.2401 -0.560433 0.15343 52.8477 4.14796e-006 -0.000101285 -86.4976 176.138 3.38029 -33.308 -0.770868 0.461133 -109.644 7.98194 5.24479 19.6568 0.513142 -0.118949 57.3499 5.78839e-005 1.14597e-005 -86.4976 -1.61916 7.1922 156.778 13.9241 -1.59072 -24.0156 3.07476 -3.41916 -12.8849 -1.6049 -10.2823 -33.3875 8.34981 13.6517 6.69091 2.70724 1.18573 12.3134 76.209 21.4359 -26.093 31.7201 -18.5234 110.86 10.8974 -10.4549 45.742 -60.8935 12.7145 7.16502 -149.975 -9.93364 145.862 0.000390795 -4.72065e-005 3.10495 0.000290241 -0.000133607 -0.172894 0.00017566 -0.00143647 -0.000153037 100.556 89.0839 -89.9871 -0.000402034 -0.000354378 5.77832 0.00107573 -0.000862944 8.20594 -0.000640332 -0.000548393 -0.00047726 134.077 89.7904 -110.759 0.000106636 -0.000382538 11.8098 0.000784651 -0.000813841 2.29741 -0.000612581 -0.000175891 0.00021515 93.7029 88.957 -67.8061 0.00011986 -0.000967801 14.1959 0.00127195 -0.000662665 5.1906 -0.000689839 -0.00119003 0.00074875 62.2245 86.142 -33.6208 0.000897817 -0.00137459 6.19195 -0.000274052 -0.000348694 3.16619 -0.000195087 -4.95314e-005 -0.000332971 -73.4857 -25.0137 -1.58742 -45.6158 10.481 50.1244 1.51064 6.34796 90.4522 64.5364 -29.1527 -11.4776 158.659 0.833721 169.63 -2.53501 -0.467101 10.4357 -2.52173 -0.533219 11.9339 -2.49781 0.000350952 -179.991 -113.494 -82.1671 -96.9362 -0.000164536 -0.000145768 16.6892 0.000166179 5.09171e-005 10.8018 6.10351e-005 -0.000274658 -180 -14.2866 -89.9997 11.286 -3.02467e-005 3.72803e-005 10.2701 -1.60618e-005 4.05355e-005 9.66939 3.05175e-005 6.10351e-005 -180 54.9817 -87.2293 77.8505 -5.35726e-006 -0.000156311 6.36554 1.41192e-005 0.000369644 6.36821 0.000106811 -9.15527e-005 180 54.9957 -84.2105 74.6902 4.15119e-005 0.000188394 3.19125 2.44192e-005 7.27143e-005 3.19169 6.10351e-005 3.05176e-005 180 
0 0 0 -90 -7.01671e-015 -180 -178.01 -7.37484 158.235 -175.845 6.46819 -40.0576 -2.26397 -0.0693657 -89.0099 -4.8442 -13.8703 24.4165 -0.560546 0.15299 52.8937 4.0548e-006 -0.000190997 -86.4976 175.425 4.27815 -31.337 -0.750843 0.508483 -112.827 7.96888 5.53616 19.4743 0.527609 -0.11772 57.4419 5.75201e-005 -6.56738e-006 -86.4976 -1.68115 6.99303 156.133 14.2231 -1.95267 -23.6927 3.09621 -3.6047 -12.4937 -1.75792 -10.2704 -33.9783 7.91284 13.1138 7.21273 2.20295 1.16394 11.4571 76.4345 21.3412 -26.7508 31.9232 -19.346 112.749 10.2239 -11.6447 43.482 -59.1295 11.969 7.67106 -149.977 -9.97744 145.786 0.000385855 -5.3825e-005 3.01294 0.000291283 -0.000133996 -0.332378 0.000175657 -0.00150778 -0.000153036 99.809 89.1734 -89.3205 -0.000405631 -0.000357105 5.78792 0.00107351 -0.00087097 8.21641 -0.000640332 -0.000559719 -0.00047726 133.948 89.789 -110.712 9.11376e-005 -0.000396263 11.7976 0.000776425 -0.000808454 2.23717 -0.000612581 -0.000175892 0.00021515 94.4674 88.9127 -68.6293 0.000121315 -0.000961325 14.1997 0.00127479 -0.000660498 5.07704 -0.000689839 -0.00119907 0.000748751 63.2393 86.0529 -34.5873 0.000890238 -0.00138032 6.17708 -0.000277497 -0.000351336 3.11041 -0.000195087 -5.19463e-005 -0.000332971 -73.3418 -24.8813 -2.48983 -45.354 10.5526 51.4723 1.79429 6.79041 90.026 63.5122 -28.9953 -13.3152 158.659 0.833526 169.63 -2.53501 -0.467105 10.4357 -2.52173 -0.533255 11.9339 -2.49542 0.000320434 -179.991 -113.494 -82.167 -96.9365 -0.000164863 -0.000192634 16.6892 0.000165301 5.00115e-005 10.802 6.10351e-005 -0.000274658 -180 -14.444 -89.9997 11.1286 -3.06029e-005 1.23057e-005 10.2701 -1.96991e-005 0.000172349 9.6694 3.05175e-005 6.10351e-005 -180 54.9817 -87.2293 77.8505 -5.83674e-006 -0.000193451 6.36554 1.38587e-005 0.000290956 6.36821 0.000106811 -0.000152588 180 54.9956 -84.2105 74.6902 4.12865e-005 0.000148517 3.19125 2.27017e-005 0.000148153 3.19184 6.10351e-005 3.05176e-005 180 
0 0 0 -90 -7.01671e-015 -180 -178.112 -7.5588 159.208 -176.569 7.26257 -38.3983 -2.29609 0.0118574 -90.2071 -4.76539 -13.6395 24.8541 -0.559677 0.156153 52.5718 3.83843e-006 -9.78823e-006 -86.4976 175.014 5.08808 -29.2078 -0.731262 0.553731 -115.843 8.14322 5.69296 19.2453 0.540134 -0.118731 57.289 5.70255e-005 -3.98563e-005 -86.4976 -1.7298 6.80692 155.487 14.3916 -2.30888 -23.6682 3.08662 -3.80038 -12.0298 -1.92133 -10.4141 -34.257 7.71724 12.6027 7.07451 1.60598 1.2941 10.7849 76.9921 21.1921 -27.8336 32.1299 -20.3208 114.902 9.33665 -12.3692 41.0747 -57.5004 10.9224 7.7953 -149.98 -10.0197 145.714 0.000386267 -5.43866e-005 2.92777 0.000294876 -0.000135172 -0.491861 0.000175446 -0.00136433 -0.000152503 98.9944 89.2618 -88.5935 -0.000409621 -0.000357675 5.79751 0.00107601 -0.000871261 8.22416 -0.000640331 -0.000584227 -0.000477261 133.755 89.788 -110.605 8.11669e-005 -0.000413635 11.7855 0.000770777 -0.000804768 2.17693 -0.000612581 -0.000178307 0.00021515 95.168 88.8682 -69.3887 0.000121657 -0.000955902 14.2035 0.00126694 -0.000675896 4.96179 -0.000689839 -0.00121472 0.00074875 64.1735 85.9636 -35.4774 0.000881234 -0.00138424 6.16222 -0.000278842 -0.000354849 3.05464 -0.000195085 -5.78614e-005 -0.000332971 -73.1705 -24.7317 -3.43717 -45.1248 10.5831 52.9758 2.13065 7.2999 89.5434 62.5764 -28.7028 -14.987 158.659 0.833526 169.63 -2.53501 -0.467116 10.4357 -2.52173 -0.533322 11.9339 -2.49301 0.000305176 -179.991 -113.495 -82.167 -96.9372 -0.000165196 -0.000284399 16.6892 0.000165046 4.99201e-005 10.8021 6.10351e-005 -0.000274658 -180 -14.4154 -89.9997 11.1572 -3.0734e-005 -3.52611e-005 10.2701 -1.97891e-005 0.00017197 9.6694 3.05175e-005 6.10351e-005 -180 54.9815 -87.2293 77.8503 -5.87933e-006 -0.000266054 6.36554 1.4819e-005 0.000369505 6.36836 0.000106811 -3.05176e-005 -180 54.9958 -84.2105 74.6903 4.11039e-005 7.16206e-005 3.19125 2.25164e-005 7.27438e-005 3.19184 6.10351e-005 3.05176e-005 180 
0 0 0 -90 -7.01671e-015 -180 -178.314 -7.69994 160.14 -177.597 7.82099 -36.9891 -2.32079 -0.0113862 -90.7638 -5.27516 -13.3414 24.5235 -0.560114 0.154568 52.7334 4.16448e-006 -1.96724e-005 -86.4976 174.273 5.74215 -27.2589 -0.730536 0.60235 -118.455 8.49615 5.62846 18.8652 0.551305 -0.118493 57.2772 5.66294e-005 -0.000106879 -86.4976 -1.77681 6.63301 154.961 14.6716 -2.59525 -23.6968 3.14175 -3.84836 -11.6125 -2.08644 -10.5658 -34.6981 7.55596 12.0789 6.88079 1.20667 1.44199 10.0915 77.229 21.055 -28.7054 32.2807 -20.885 116.84 8.19666 -12.9999 38.8368 -55.9674 9.83916 7.78276 -149.982 -10.062 145.642 0.000385921 -5.82618e-005 2.84261 0.000291438 -0.000132031 -0.646736 0.000175446 -0.00136433 -0.000152503 98.1036 89.3492 -87.7983 -0.000411893 -0.000357053 5.80711 0.00107714 -0.000868392 8.2319 -0.000640332 -0.000633124 -0.000477262 133.565 89.7869 -110.501 6.95167e-005 -0.000410919 11.7693 0.000791297 -0.000812522 2.10916 -0.000612581 -0.00018249 0.00021515 95.7559 88.8259 -70.0387 0.000118451 -0.000965903 14.2055 0.00125845 -0.000687127 4.84654 -0.000689839 -0.00124792 0.00074875 65.068 85.8734 -36.3279 0.000902247 -0.00137089 6.1426 -0.000285269 -0.000361843 2.99886 -0.000195087 -6.89275e-005 -0.000332971 -72.9792 -24.5725 -4.39912 -45.0021 10.4384 54.0646 2.50175 7.80989 89.2325 61.632 -28.4337 -16.4846 158.659 0.833526 169.63 -2.53501 -0.467137 10.4357 -2.52172 -0.533199 11.9339 -2.4906 0.000289917 -179.991 -113.493 -82.1671 -96.936 -0.000165681 -0.000106213 16.6892 0.000164492 4.93532e-005 10.8022 6.1035e-005 -0.000274658 -180 -14.7216 -89.9997 10.851 -3.31539e-005 -0.000129329 10.2701 -1.26985e-005 0.000172932 9.6694 3.05175e-005 6.10351e-005 -180 54.9815 -87.2293 77.8503 -1.05706e-005 -0.000124579 6.36556 1.58508e-005 0.000288604 6.36837 0.000106811 -3.05176e-005 -180 54.9959 -84.2106 74.6905 4.36374e-005 0.000225865 3.19125 2.25688e-005 0.000146897 3.19199 6.10351e-005 3.05176e-005 180 
